:version 1.10
:name ASF
:units
  mass 1
  length 1
  angle deg
:documentation
  ASF file generated by Kaydara
:root
  axis xyz
  order  tx ty tz rx ry rz
  position 0 0 0
  orientation 0 0 0
:bonedata
  begin
    id 1
    name RightUpLegDummy
    direction -0.65628 -0.754516 0.00165102
    length 4.76918
    axis 0 0 0 xyz
  end
  begin
    id 2
    name RightUpLeg
    direction -0.145584 -0.923362 0.355256
    length 17.9961
    axis -24.7611 -13.1006 1.78531 xyz
    dof rx ry rz
  end
  begin
    id 3
    name RightLeg
    direction 0.263379 0.172355 -0.949171
    length 13.3386
    axis 89.6202 -21.1929 12.3855 xyz
    dof rx ry rz
  end
  begin
    id 4
    name RightFoot
    direction 0.224283 -0.968777 -0.105675
    length 5.86697
    axis 56.995 -39.6905 17.3365 xyz
    dof rx ry rz
  end
  begin
    id 5
    name RightToes
    direction -0.0806345 -0.9037 0.420506
    length 4.75197
    axis 146.825 -39.7828 17.6019 xyz
    dof rx ry rz
  end
  begin
    id 6
    name SpineDummy
    direction -3.39852e-014 1 9.33296e-014
    length 8.13779
    axis 0 0 0 xyz
  end
  begin
    id 7
    name Spine
    direction -0.156609 0.733703 0.661176
    length 7.14978
    axis 41.2365 5.68757 17.0844 xyz
    dof rx ry rz
  end
  begin
    id 8
    name Spine1
    direction 0 0 0
    length 0
    axis 42.8809 47.8308 -3.36039 xyz
    dof rx ry rz
  end
  begin
    id 9
    name HEadDummy
    direction 0.546431 0.701947 0.456819
    length 3.55512
    axis 42.8809 47.8308 -3.36039 xyz
  end
  begin
    id 10
    name HEad
    direction 0.23444 0.828559 0.508457
    length 7.35827
    axis 51.1864 49.2662 27.4903 xyz
    dof rx ry rz
  end
  begin
    id 11
    name LeftShoulder1Dummy
    direction 0.431183 0.475873 -0.766568
    length 2.49352
    axis 42.8809 47.8308 -3.36039 xyz
  end
  begin
    id 12
    name LeftShoulder1
    direction 0.268187 -0.383402 -0.883786
    length 4.48604
    axis -119.517 0.106469 35.1736 xyz
    dof rx ry rz
  end
  begin
    id 13
    name LeftArm
    direction 0.380567 -0.703221 -0.600541
    length 10.1142
    axis -5.41825 36.2925 7.8293 xyz
    dof rx ry rz
  end
  begin
    id 14
    name LeftForeArm
    direction 0.541071 -0.732356 -0.413396
    length 9.39839
    axis 4.65387 33.7604 7.81644 xyz
    dof rx ry rz
  end
  begin
    id 15
    name LeftHand
    direction 0.847511 -0.389379 -0.360707
    length 3.66142
    axis 7.65593 21.1436 -24.6758 xyz
    dof rx ry rz
  end
  begin
    id 16
    name RightShoulderDummy
    direction -0.692546 0.541855 0.476208
    length 2.49352
    axis 42.8809 47.8308 -3.36039 xyz
  end
  begin
    id 17
    name RightShoulder
    direction -0.870808 -0.316653 0.376065
    length 4.48602
    axis 141.571 51.133 -100.254 xyz
    dof rx ry rz
  end
  begin
    id 18
    name RightArm
    direction 0.366897 -0.87275 0.322015
    length 10.1142
    axis 92.3258 71.2036 138.917 xyz
    dof rx ry rz
  end
  begin
    id 19
    name RightForeArm
    direction 0.702487 -0.694568 0.155197
    length 9.39835
    axis 153.863 41.5092 -176.604 xyz
    dof rx ry rz
  end
  begin
    id 20
    name RightHand
    direction 0.79502 -0.601276 0.0800636
    length 3.66142
    axis 154.247 4.59222 142.9 xyz
    dof rx ry rz
  end
  begin
    id 21
    name LeftUpLegDummy
    direction 0.65628 -0.754516 0.00165102
    length 4.76919
    axis 0 0 0 xyz
  end
  begin
    id 22
    name LeftUpLeg
    direction -0.1277 -0.689368 0.713067
    length 17.9961
    axis -48.3385 -17.8675 0.791927 xyz
    dof rx ry rz
  end
  begin
    id 23
    name LeftLeg
    direction 0.109849 -0.991246 -0.0732378
    length 13.3386
    axis -2.05791 -7.30784 1.72042 xyz
    dof rx ry rz
  end
  begin
    id 24
    name LeftFoot
    direction 0.0448355 -0.272614 0.961078
    length 5.86697
    axis -18.7733 -7.89606 10.2113 xyz
    dof rx ry rz
  end
  begin
    id 25
    name LeftToes
    direction -0.18506 0.293668 0.937823
    length 4.75197
    axis 71.2267 -7.89606 10.2113 xyz
    dof rx ry rz
  end
:hierarchy
  begin
    root RightUpLegDummy SpineDummy LeftUpLegDummy
    RightUpLegDummy RightUpLeg
    RightUpLeg RightLeg
    RightLeg RightFoot
    RightFoot RightToes
    SpineDummy Spine
    Spine Spine1
    Spine1 HEadDummy LeftShoulder1Dummy RightShoulderDummy
    HEadDummy HEad
    LeftShoulder1Dummy LeftShoulder1
    LeftShoulder1 LeftArm
    LeftArm LeftForeArm
    LeftForeArm LeftHand
    RightShoulderDummy RightShoulder
    RightShoulder RightArm
    RightArm RightForeArm
    RightForeArm RightHand
    LeftUpLegDummy LeftUpLeg
    LeftUpLeg LeftLeg
    LeftLeg LeftFoot
    LeftFoot LeftToes
  end

:SAMPLES-PER-SECOND 30
:FULLY-SPECIFIED
:DEGREES
478
root  -18.1215 34.1721 -18.9031 51.4153 40.8126 -112.796
RightUpLeg  -18.8139 15.1831 -50.9756
RightLeg  -21.1754 -43.6013 4.29319
RightFoot  1.19029 8.73336 -20.6259
RightToes  -1.27222e-014 -6.36111e-015 6.36111e-015
Spine  7.64353 5.69799 12.9601
Spine1  -19.5827 -9.39562 -9.64636
HEad  8.66826 -22.3728 12.7013
LeftShoulder1  6.36111e-015 -1.33558e-015 6.49777e-015
LeftArm  -71.0742 -27.0548 83.2793
LeftForeArm  18.0048 -23.7235 -5.06491
LeftHand  14.2408 22.0327 17.6273
RightShoulder  -4.77083e-015 -6.36111e-015 -3.18055e-015
RightArm  18.5256 37.3021 -55.0671
RightForeArm  -54.2775 0.924649 -21.2028
RightHand  7.6108 -11.6823 -23.0966
LeftUpLeg  -21.1263 42.6892 34.3987
LeftLeg  -17.672 -4.61181 -1.77729
LeftFoot  0.617296 3.9617 -13.0529
LeftToes  1.27222e-014 1.09105e-011 6.96064e-012
479
root  -19.7278 33.5894 -20.6998 34.8469 33.5382 -130.025
RightUpLeg  -11.896 16.805 -47.4492
RightLeg  -32.7755 -37.7993 8.30584
RightFoot  5.02828 8.62204 -20.7265
RightToes  -1.27222e-014 -6.36111e-015 6.36111e-015
Spine  4.59223 7.25373 14.498
Spine1  -17.4057 -8.64556 -8.89346
HEad  14.0059 -32.3198 8.89865
LeftShoulder1  6.36111e-015 -1.33558e-015 6.49777e-015
LeftArm  -68.6139 -29.2657 89.7495
LeftForeArm  23.7051 -27.0323 -11.556
LeftHand  12.8727 20.7782 15.6535
RightShoulder  -4.77083e-015 -6.36111e-015 -3.18055e-015
RightArm  26.5396 28.3288 -65.3619
RightForeArm  -58.102 0.261937 -20.3163
RightHand  9.66135 -9.97152 -33.8732
LeftUpLeg  -22.2229 36.7021 29.9052
LeftLeg  -15.8249 -3.81484 -1.77801
LeftFoot  3.03946 4.21187 -12.9164
LeftToes  1.27222e-014 1.09105e-011 6.96064e-012
480
root  -22.0036 33.1034 -21.4931 22.9476 21.0816 -142.269
RightUpLeg  -2.62197 18.3486 -43.3417
RightLeg  -52.6249 -25.4709 9.21735
RightFoot  14.5285 6.11818 -17.0773
RightToes  -1.27222e-014 -6.36111e-015 6.36111e-015
Spine  0.0401896 9.2133 16.3713
Spine1  -15.7488 -7.19762 -3.84577
HEad  25.2247 -40.5069 -1.78452
LeftShoulder1  6.36111e-015 -1.33558e-015 6.49777e-015
LeftArm  -63.9496 -33.7386 92.7188
LeftForeArm  33.1681 -31.947 -22.5417
LeftHand  11.8684 19.4972 14.6916
RightShoulder  -4.77083e-015 -6.36111e-015 -3.18055e-015
RightArm  28.3673 18.941 -78.6533
RightForeArm  -59.2356 1.28441 -21.779
RightHand  12.3375 -11.4088 -40.8172
LeftUpLeg  -13.7695 31.3557 30.3544
LeftLeg  -21.5207 -5.20754 -1.89202
LeftFoot  6.2376 4.08016 -11.4587
LeftToes  1.27222e-014 1.09105e-011 6.96064e-012
481
root  -23.7909 33.1019 -21.0903 14.7939 2.5155 -151.067
RightUpLeg  7.62423 19.6166 -37.9657
RightLeg  -76.4197 -15.3271 4.62074
RightFoot  28.2919 0.719812 -11.6793
RightToes  -1.27222e-014 -6.36111e-015 6.36111e-015
Spine  -4.06952 9.28088 14.516
Spine1  -15.5352 -5.18107 5.51304
HEad  34.0778 -44.1912 -12.9775
LeftShoulder1  6.36111e-015 -1.33558e-015 6.49777e-015
LeftArm  -52.8588 -37.6801 91.0618
LeftForeArm  46.1597 -37.6496 -34.9801
LeftHand  12.7615 19.5244 17.4862
RightShoulder  -4.77083e-015 -6.36111e-015 -3.18055e-015
RightArm  25.3164 9.75856 -90.8585
RightForeArm  -61.0208 2.95961 -24.4345
RightHand  13.7791 -12.5604 -43.3909
LeftUpLeg  2.6191 16.8609 37.1751
LeftLeg  -31.6242 -0.596048 -7.58147
LeftFoot  11.9177 3.23727 -7.90379
LeftToes  1.27222e-014 1.09105e-011 6.96064e-012
482
root  -24.4551 33.8586 -20.152 12.2137 -20.2852 -158.487
RightUpLeg  14.4641 13.677 -34.3714
RightLeg  -92.9705 -11.4329 -4.33173
RightFoot  39.1711 -5.97334 -6.79163
RightToes  -1.27222e-014 -6.36111e-015 6.36111e-015
Spine  -7.59364 6.36986 7.66223
Spine1  -17.8182 -4.25519 16.5867
HEad  37.9127 -45.0521 -21.6717
LeftShoulder1  6.36111e-015 -1.33558e-015 6.49777e-015
LeftArm  -36.5845 -37.588 87.7922
LeftForeArm  54.5978 -38.6111 -40.8639
LeftHand  11.8311 18.2069 16.8937
RightShoulder  -4.77083e-015 -6.36111e-015 -3.18055e-015
RightArm  20.2628 4.29506 -94.7876
RightForeArm  -60.1798 4.50865 -27.003
RightHand  13.7613 -11.6786 -45.0204
LeftUpLeg  17.0656 7.9221 43.7274
LeftLeg  -37.9179 2.78471 -8.07808
LeftFoot  17.6294 1.72662 -3.7603
LeftToes  1.27222e-014 1.09105e-011 6.96064e-012
483
root  -24.2164 35.1136 -19.2946 17.4864 -44.7378 -166.993
RightUpLeg  17.0063 5.64775 -32.9338
RightLeg  -97.6245 -11.7855 -10.6563
RightFoot  42.758 -11.8106 -2.11139
RightToes  -1.27222e-014 -6.36111e-015 6.36111e-015
Spine  -12.6124 0.977254 -1.83964
Spine1  -20.7911 -4.34542 28.1342
HEad  40.2518 -44.5343 -29.4706
LeftShoulder1  6.36111e-015 -1.33558e-015 6.49777e-015
LeftArm  -14.5014 -37.0621 86.6266
LeftForeArm  40.0689 -33.6841 -25.9405
LeftHand  6.4884 13.1104 6.36025
RightShoulder  -4.77083e-015 -6.36111e-015 -3.18055e-015
RightArm  13.5435 6.53659 -90.9564
RightForeArm  -52.0059 5.64118 -27.3447
RightHand  14.0848 -13.4453 -42.7308
LeftUpLeg  28.3293 4.71328 50.2569
LeftLeg  -37.8475 4.26118 -7.35412
LeftFoot  17.178 -0.0155942 -0.0670802
LeftToes  1.27222e-014 1.09105e-011 6.96064e-012
484
root  -23.4814 36.3241 -19.0805 36.6995 -67.684 175.679
RightUpLeg  17.3011 5.80165 -31.1608
RightLeg  -99.2899 -12.0652 -10.5523
RightFoot  43.2285 -15.4745 1.23583
RightToes  -1.27222e-014 -6.36111e-015 6.36111e-015
Spine  -20.0332 -4.38095 -7.88092
Spine1  -21.756 -6.11651 33.9658
HEad  42.7942 -44.0667 -35.8733
LeftShoulder1  6.36111e-015 -1.33558e-015 6.49777e-015
LeftArm  3.36991 -39.6952 86.4188
LeftForeArm  14.4459 -11.5915 -7.58121
LeftHand  4.12404 11.2848 -1.33525
RightShoulder  -4.77083e-015 -6.36111e-015 -3.18055e-015
RightArm  9.43856 16.7777 -87.4428
RightForeArm  -39.3144 6.20545 -24.5245
RightHand  11.847 -14.1745 -34.3406
LeftUpLeg  37.2683 3.29896 52.3154
LeftLeg  -37.8684 3.81146 -8.11413
LeftFoot  12.096 -0.793574 1.85036
LeftToes  1.27222e-014 1.09105e-011 6.96064e-012
485
root  -22.8689 37.0813 -19.4952 117.43 -78.7137 100.451
RightUpLeg  13.3964 5.1382 -31.9657
RightLeg  -97.8915 -11.9801 -13.3583
RightFoot  43.2765 -17.4094 3.06006
RightToes  -1.27222e-014 -6.36111e-015 6.36111e-015
Spine  -26.937 -7.54923 -8.27605
Spine1  -23.7736 -9.37333 32.4083
HEad  44.2336 -43.4459 -38.5831
LeftShoulder1  6.36111e-015 -1.33558e-015 6.49777e-015
LeftArm  16.8681 -37.7353 77.5904
LeftForeArm  2.54369 5.17496 0.52749
LeftHand  6.45474 14.6642 3.26849
RightShoulder  -4.77083e-015 -6.36111e-015 -3.18055e-015
RightArm  10.7098 28.5293 -86.26
RightForeArm  -25.5574 10.4506 -22.927
RightHand  9.20571 -11.8307 -28.9222
LeftUpLeg  40.5025 3.58812 49.6841
LeftLeg  -39.1652 3.84028 -8.82892
LeftFoot  6.32973 -0.793648 2.21181
LeftToes  1.27222e-014 1.09105e-011 6.96064e-012
486
root  -22.5298 37.0492 -20.48 173.849 -63.6588 51.3553
RightUpLeg  7.18341 3.72309 -32.1509
RightLeg  -95.6599 -11.5633 -16.2286
RightFoot  42.6438 -17.6371 3.57372
RightToes  -1.27222e-014 -6.36111e-015 6.36111e-015
Spine  -31.5174 -9.91737 -8.32818
Spine1  -28.3273 -12.5432 29.2831
HEad  44.249 -42.9671 -38.411
LeftShoulder1  6.36111e-015 -1.33558e-015 6.49777e-015
LeftArm  16.9684 -31.5464 70.052
LeftForeArm  3.03942 5.52233 1.55588
LeftHand  7.74702 15.9554 6.25946
RightShoulder  -4.77083e-015 -6.36111e-015 -3.18055e-015
RightArm  11.6834 37.5758 -86.1725
RightForeArm  -9.41388 11.7944 -15.7987
RightHand  8.98014 -12.2737 -27.3849
LeftUpLeg  38.6453 3.92059 48.5993
LeftLeg  -40.0388 5.75646 -9.92796
LeftFoot  4.31563 -0.764657 2.27713
LeftToes  1.27222e-014 1.09105e-011 6.96064e-012
487
root  -22.6521 36.1676 -21.7177 -171.089 -45.0571 43.1009
RightUpLeg  2.56787 6.93966 -30.4972
RightLeg  -95.814 -11.8561 -15.4131
RightFoot  40.6729 -16.0792 2.97495
RightToes  -1.27222e-014 -6.36111e-015 6.36111e-015
Spine  -34.0842 -13.9096 -9.36796
Spine1  -32.3681 -15.8623 27.9007
HEad  42.1887 -43.3485 -35.6935
LeftShoulder1  6.36111e-015 -1.33558e-015 6.49777e-015
LeftArm  9.60321 -33.3522 65.9458
LeftForeArm  6.02794 6.36258 -1.55997
LeftHand  7.42432 15.5355 5.72242
RightShoulder  -4.77083e-015 -6.36111e-015 -3.18055e-015
RightArm  19.3546 49.3538 -81.0415
RightForeArm  5.42602 1.51171 -1.56655
RightHand  7.14649 -7.83109 -27.5706
LeftUpLeg  36.5587 3.37407 51.8223
LeftLeg  -40.4686 7.43484 -10.8827
LeftFoot  3.65426 -0.838584 2.5523
LeftToes  1.27222e-014 1.09105e-011 6.96064e-012
488
root  -23.1994 34.604 -22.4852 -163.746 -29.217 41.0986
RightUpLeg  -0.562711 12.9776 -29.646
RightLeg  -95.7177 -11.7524 -12.6871
RightFoot  37.719 -13.2711 1.44245
RightToes  -1.27222e-014 -6.36111e-015 6.36111e-015
Spine  -34.2917 -21.0269 -11.5789
Spine1  -35.8657 -19.0901 32.5281
HEad  36.8966 -43.9042 -31.2085
LeftShoulder1  6.36111e-015 -1.33558e-015 6.49777e-015
LeftArm  -3.75591 -30.186 62.571
LeftForeArm  9.51738 1.92034 -1.50062
LeftHand  8.39622 16.0355 8.64861
RightShoulder  -4.77083e-015 -6.36111e-015 -3.18055e-015
RightArm  36.9383 54.4789 -65.7245
RightForeArm  13.3306 1.09851 12.462
RightHand  7.50192 -3.06989 -40.1714
LeftUpLeg  34.5721 2.63286 56.8816
LeftLeg  -40.8129 8.01333 -10.7403
LeftFoot  1.8866 -0.632865 2.0553
LeftToes  1.27222e-014 1.09105e-011 6.96064e-012
489
root  -23.6546 32.7082 -22.3959 -158.044 -17.3375 40.6697
RightUpLeg  -4.24485 15.1142 -31.0339
RightLeg  -94.2105 -11.1696 -10.9189
RightFoot  34.8078 -11.1606 0.429567
RightToes  -1.27222e-014 -6.36111e-015 6.36111e-015
Spine  -30.2918 -31.0034 -18.6974
Spine1  -40.2428 -18.7978 48.4877
HEad  29.7549 -44.9245 -28.4039
LeftShoulder1  6.36111e-015 -1.33558e-015 6.49777e-015
LeftArm  -18.5586 -28.8785 57.4953
LeftForeArm  11.9093 -2.53111 -3.44183
LeftHand  7.66851 14.9088 7.86797
RightShoulder  -4.77083e-015 -6.36111e-015 -3.18055e-015
RightArm  37.5228 49.7796 -59.4153
RightForeArm  21.3773 9.88666 17.7944
RightHand  13.4387 -5.39656 -58.6264
LeftUpLeg  29.9854 3.23989 60.7934
LeftLeg  -41.5891 8.06591 -10.1241
LeftFoot  0.57149 -0.385218 1.33384
LeftToes  1.27222e-014 1.09105e-011 6.96064e-012
